<svg width="32" height="32" viewBox="0 0 32 32" fill="none" xmlns="http://www.w3.org/2000/svg">
<path d="M9.28 18.56C14.4052 18.56 18.56 14.4052 18.56 9.28C18.56 4.1548 14.4052 0 9.28 0C4.1548 0 0 4.1548 0 9.28C0 14.4052 4.1548 18.56 9.28 18.56Z" fill="#28A8EA"/>
<path d="M22.7199 31.9999C27.8451 31.9999 31.9999 27.8451 31.9999 22.7199C31.9999 17.5947 27.8451 13.4399 22.7199 13.4399C17.5947 13.4399 13.4399 17.5947 13.4399 22.7199C13.4399 27.8451 17.5947 31.9999 22.7199 31.9999Z" fill="#28A8EA"/>
<path d="M16 31.3599C24.4831 31.3599 31.36 24.483 31.36 15.9999C31.36 7.5168 24.4831 0.639893 16 0.639893C7.51692 0.639893 0.640015 7.5168 0.640015 15.9999C0.640015 24.483 7.51692 31.3599 16 31.3599Z" fill="#28A8EA"/>
<path fill-rule="evenodd" clip-rule="evenodd" d="M12.0166 15.7084C11.4161 15.3128 10.9152 14.7839 10.5528 14.1628C10.2027 13.507 10.0298 12.7712 10.0514 12.0281C10.0247 11.085 10.3465 10.1651 10.9552 9.44431C11.5877 8.72044 12.4006 8.17707 13.3113 7.86948C14.3021 7.51964 15.3459 7.34401 16.3965 7.35039C17.0841 7.34388 17.7709 7.39656 18.4494 7.50786C18.9348 7.58289 19.4115 7.70599 19.8725 7.87533C20.296 8.01875 20.6783 8.26293 20.9865 8.58686C21.2136 8.85329 21.3359 9.19335 21.3305 9.54343C21.3387 9.72528 21.311 9.90696 21.249 10.0781C21.1869 10.2492 21.0918 10.4065 20.9689 10.5408C20.8526 10.6646 20.7114 10.7624 20.5546 10.8278C20.3978 10.8931 20.2289 10.9245 20.0591 10.92C19.8254 10.9182 19.5947 10.8665 19.3826 10.7682C18.8605 10.5345 18.3226 10.3377 17.7729 10.1792C17.2667 10.0459 16.745 9.98114 16.2216 9.98676C15.54 9.96147 14.8656 10.1336 14.2795 10.4825C14.0319 10.6328 13.8293 10.847 13.6928 11.1024C13.5564 11.3579 13.4911 11.6454 13.5038 11.9348C13.5002 12.3144 13.6445 12.6804 13.9062 12.9554C14.2174 13.2781 14.5851 13.541 14.991 13.7312C15.446 13.9568 16.1244 14.2562 17.0264 14.6294C17.1264 14.661 17.2239 14.7 17.318 14.7461C18.1982 15.0942 19.0421 15.5278 19.8375 16.0409C20.4658 16.4506 20.9956 16.9943 21.3888 17.6331C21.7758 18.3042 21.9696 19.0692 21.9487 19.8436C21.9812 20.7921 21.7094 21.7262 21.173 22.5091C20.6268 23.2503 19.8712 23.8109 19.0035 24.1189C17.958 24.4922 16.8533 24.6721 15.7433 24.6497C14.218 24.7033 12.6999 24.4164 11.2994 23.8098C10.941 23.6504 10.6267 23.4062 10.3837 23.0982C10.1823 22.8162 10.0779 22.4764 10.0863 22.13C10.0762 21.9472 10.106 21.7644 10.1734 21.5942C10.2409 21.4241 10.3444 21.2706 10.477 21.1443C10.7552 20.9006 11.1164 20.7733 11.4859 20.7885C11.8971 20.7942 12.3011 20.8982 12.6639 21.0918C13.1148 21.3174 13.4706 21.4866 13.7313 21.5993C14.029 21.724 14.3375 21.8216 14.6528 21.8909C15.0415 21.9763 15.4386 22.0173 15.8365 22.0133C16.5401 22.0634 17.2403 21.8766 17.8254 21.4826C18.0445 21.3112 18.2196 21.0901 18.3362 20.8375C18.4528 20.585 18.5076 20.3083 18.496 20.0303C18.4969 19.6358 18.3467 19.256 18.0762 18.9688C17.7188 18.6005 17.3005 18.2967 16.8398 18.0706C16.2954 17.7829 15.5294 17.433 14.5419 17.0208C13.6584 16.6688 12.8124 16.2291 12.0166 15.7084" fill="white"/>
<path opacity="0.1" fill-rule="evenodd" clip-rule="evenodd" d="M12.1792 0.467217C11.7734 0.331355 11.3585 0.22442 10.9376 0.147217C8.4106 0.9582 6.11345 2.36019 4.23682 4.23682C2.36019 6.11345 0.9582 8.4106 0.147217 10.9376C0.224434 11.3585 0.331368 11.7734 0.467217 12.1792C0.580675 12.5466 0.724089 12.9041 0.896017 13.248C1.45194 10.1762 2.93263 7.3474 5.14002 5.14002C7.3474 2.93263 10.1762 1.45194 13.248 0.896017C12.9041 0.724109 12.5466 0.580696 12.1792 0.467217Z" fill="black"/>
<path opacity="0.1" fill-rule="evenodd" clip-rule="evenodd" d="M12.1792 0.467285C9.34478 1.16636 6.75544 2.62702 4.69117 4.69129C2.6269 6.75556 1.16624 9.3449 0.467163 12.1793C0.580621 12.5467 0.724035 12.9041 0.895963 13.2481C1.45189 10.1763 2.93258 7.34747 5.13996 5.14009C7.34735 2.9327 10.1762 1.45201 13.248 0.896085C12.904 0.724178 12.5466 0.580764 12.1792 0.467285Z" fill="black"/>
<path opacity="0.1" fill-rule="evenodd" clip-rule="evenodd" d="M31.5328 19.8208C31.4193 19.4534 31.2759 19.0959 31.104 18.752C30.548 21.8238 29.0673 24.6526 26.86 26.86C24.6526 29.0673 21.8238 30.548 18.752 31.104C19.0959 31.2759 19.4534 31.4193 19.8208 31.5328C20.2265 31.6686 20.6414 31.7755 21.0624 31.8528C23.5894 31.0418 25.8865 29.6398 27.7631 27.7631C29.6398 25.8865 31.0418 23.5894 31.8528 21.0624C31.7755 20.6415 31.6686 20.2265 31.5328 19.8208Z" fill="black"/>
<path opacity="0.1" fill-rule="evenodd" clip-rule="evenodd" d="M31.104 18.752C30.548 21.8238 29.0673 24.6526 26.86 26.86C24.6526 29.0673 21.8238 30.548 18.752 31.104C19.0959 31.2759 19.4534 31.4193 19.8208 31.5328C22.6551 30.8337 25.2445 29.373 27.3088 27.3088C29.373 25.2445 30.8337 22.6551 31.5328 19.8208C31.4193 19.4534 31.2759 19.0959 31.104 18.752Z" fill="black"/>
</svg>
