<svg width="32" height="32" viewBox="0 0 32 32" fill="none" xmlns="http://www.w3.org/2000/svg">
<path d="M0 32L2.752 23.7446C1.35559 21.3959 0.551724 18.6549 0.551724 15.7241C0.551724 7.04 7.59172 0 16.2759 0C24.96 0 32 7.04 32 15.7241C32 24.4083 24.96 31.4483 16.2759 31.4483C13.6337 31.4483 11.1454 30.7934 8.96 29.6425L0 32Z" fill="#2CB742"/>
<path d="M26.3078 20.9572C25.5817 19.585 22.9042 18.0159 22.9042 18.0159C22.2984 17.6706 21.5674 17.6319 21.222 18.2477C21.222 18.2477 20.352 19.291 20.1307 19.441C19.12 20.1257 18.1837 20.0992 17.2386 19.1541L15.0422 16.9577L12.8458 14.7613C11.9006 13.8162 11.8742 12.8799 12.5589 11.8692C12.7089 11.6479 13.7522 10.7779 13.7522 10.7779C14.368 10.4319 14.3293 9.70145 13.984 9.09566C13.984 9.09566 12.4149 6.41814 11.0427 5.69207C10.459 5.38311 9.7423 5.49125 9.27554 5.95801L8.30561 6.92794C5.22865 10.0049 6.74368 13.4786 9.82065 16.5555L12.6328 19.3677L15.4449 22.1798C18.5219 25.2568 21.9955 26.7718 25.0725 23.6948L26.0424 22.7249C26.5092 22.257 26.6168 21.5404 26.3078 20.9572Z" fill="white"/>
</svg>
