<svg width="32" height="32" viewBox="0 0 32 32" fill="none" xmlns="http://www.w3.org/2000/svg">
<path d="M16 32C24.8366 32 32 24.8366 32 16C32 7.16344 24.8366 0 16 0C7.16344 0 0 7.16344 0 16C0 24.8366 7.16344 32 16 32Z" fill="#359DD3"/>
<path d="M4.51047 16.2857L9.08201 17.9925L10.8515 23.6851C10.9647 24.0497 11.4104 24.1844 11.7062 23.9425L14.2544 21.8644C14.5215 21.6467 14.902 21.6358 15.1812 21.8385L19.7773 25.1766C20.0937 25.4067 20.5421 25.2332 20.6214 24.8507L23.9883 8.64962C24.075 8.23178 23.6646 7.8832 23.2668 8.03708L4.50511 15.2773C4.04211 15.4559 4.04614 16.1116 4.51047 16.2857ZM10.5663 17.0839L19.5008 11.5793C19.6614 11.4806 19.8266 11.6978 19.6887 11.8258L12.3151 18.6822C12.056 18.9235 11.8888 19.2465 11.8414 19.5971L11.5902 21.4591C11.557 21.7077 11.2079 21.7324 11.1393 21.4918L10.1733 18.0963C10.0626 17.709 10.2239 17.2954 10.5663 17.0839Z" fill="white"/>
</svg>
